<svg xmlns="http://www.w3.org/2000/svg" width="31.395" height="31.489" viewBox="0 0 31.395 31.489"><g transform="translate(696.64 -3113.244)"><g transform="translate(-695.581 3113.994)"><path d="M-639.17,3113.244h.818l.224.253c.078.089.156.178.233.268.161.187.314.363.472.528,2.5,2.594,5.031,5.208,7.515,7.77a3.137,3.137,0,0,0,.29.25c.055.044.106.085.152.124l.612.519-4.367,4.49-5.472-5.666-5.553,5.751-4.318-4.411.476-.523.1-.114c.1-.114.217-.242.341-.371l2.955-3.056q2.461-2.545,4.92-5.091c.075-.078.152-.175.234-.278.046-.058.092-.116.139-.172Zm8.132,9.807c-2.466-2.545-4.977-5.141-7.463-7.717-.085-.088-.167-.177-.247-.266q-2.43,2.517-4.862,5.031l-2.888,2.987,2.245,2.294,5.56-5.759,5.476,5.67Z" transform="translate(653.927 -3113.994)" fill="#ffa63a"/><path d="M-517.923,3209.311l-4.141-4.339,4.22-4.348,3.926,3.926v.754l-.22.22-3.243,3.244Zm-2.06-4.33,2.084,2.183,2.236-2.237-2.166-2.166Z" transform="translate(544.255 -3190.021)" fill="#ffa63a"/><path d="M-644.2,3243.531l.536.566,3.481,3.675,1.491,1.573,5.584-5.783,4.381,4.205-4.254,4.4-5.071,5.244-.539.558-9.8-10.139.743-.761,2.907-2.979Zm13.348,4.277-2.216-2.127-5.635,5.836-2.569-2.712-2.944-3.109-2.088,2.139,7.713,7.976,4.532-4.687Z" transform="translate(653.767 -3227.23)" fill="#ffa63a"/><path d="M-692.355,3209.55l-4.284-4.3,4.187-4.207,4.33,4.259Zm-2.167-4.3,2.167,2.174,2.1-2.111-2.19-2.154Z" transform="translate(695.581 -3190.377)" fill="#ffa63a"/><path d="M-601.912,3200.244l4.278,4.332-4.278,4.385-.537-.556-2.939-3.044-.735-.761Zm2.176,4.338-2.165-2.192-2.137,2.21,2.131,2.207Z" transform="translate(617.125 -3189.696)" fill="#ffa63a"/></g><g transform="translate(-695.581 3113.994)"><path d="M-639.17,3113.244h.818l.224.253c.078.089.156.178.233.268.161.187.314.363.472.528,2.5,2.594,5.031,5.208,7.515,7.77a3.137,3.137,0,0,0,.29.25c.055.044.106.085.152.124l.612.519-4.367,4.49-5.472-5.666-5.553,5.751-4.318-4.411.476-.523.1-.114c.1-.114.217-.242.341-.371l2.955-3.056q2.461-2.545,4.92-5.091c.075-.078.152-.175.234-.278.046-.058.092-.116.139-.172Zm8.132,9.807c-2.466-2.545-4.977-5.141-7.463-7.717-.085-.088-.167-.177-.247-.266q-2.43,2.517-4.862,5.031l-2.888,2.987,2.245,2.294,5.56-5.759,5.476,5.67Z" transform="translate(653.927 -3113.994)" fill="#ffa63a"/><path d="M-517.923,3209.311l-4.141-4.339,4.22-4.348,3.926,3.926v.754l-.22.22-3.243,3.244Zm-2.06-4.33,2.084,2.183,2.236-2.237-2.166-2.166Z" transform="translate(544.255 -3190.021)" fill="#ffa63a"/><path d="M-644.2,3243.531l.536.566,3.481,3.675,1.491,1.573,5.584-5.783,4.381,4.205-4.254,4.4-5.071,5.244-.539.558-9.8-10.139.743-.761,2.907-2.979Zm13.348,4.277-2.216-2.127-5.635,5.836-2.569-2.712-2.944-3.109-2.088,2.139,7.713,7.976,4.532-4.687Z" transform="translate(653.767 -3227.23)" fill="#ffa63a"/><path d="M-692.355,3209.55l-4.284-4.3,4.187-4.207,4.33,4.259Zm-2.167-4.3,2.167,2.174,2.1-2.111-2.19-2.154Z" transform="translate(695.581 -3190.377)" fill="#ffa63a"/><path d="M-601.912,3200.244l4.278,4.332-4.278,4.385-.537-.556-2.939-3.044-.735-.761Zm2.176,4.338-2.165-2.192-2.137,2.21,2.131,2.207Z" transform="translate(617.125 -3189.696)" fill="#ffa63a"/></g></g></svg>