<svg xmlns="http://www.w3.org/2000/svg" width="77.504" height="75.144" viewBox="0 0 77.504 75.144"><path d="M-1620.365,479.138c-.552.593-1.008,1.169-1.549,1.651a4.684,4.684,0,0,1-6.436.052,7.888,7.888,0,0,1-2.818-6.741c.376-5.646.8-11.288,1.2-16.932q.4-5.522.817-11.043c.026-.343.008-.593-.352-.783a3.821,3.821,0,0,1-2.128-3.62c-.008-3.5,0-7.009,0-10.514,0-1.424.018-2.849-.01-4.273-.009-.461.159-.591.583-.568a9.844,9.844,0,0,0,1.349,0c.51-.042.672.13.668.657-.023,3.317-.017,6.634-.009,9.952,0,1.142-.188,1.043,1.048,1.046,1.539,0,1.539,0,1.539-1.514,0-3.148.012-6.3-.011-9.445,0-.545.16-.745.7-.694a6.067,6.067,0,0,0,1.179,0c.56-.057.74.133.735.715-.027,3.373-.013,6.747-.013,10.12,0,.819,0,.819.834.82.412,0,.825-.016,1.237,0,.387.019.53-.13.525-.522-.017-1.237-.006-2.474-.006-3.711,0-2.249.012-4.5-.009-6.747,0-.492.107-.763.65-.671a3.922,3.922,0,0,0,3.432-1.259,36.028,36.028,0,0,1,15.331-8,36.182,36.182,0,0,1,14.94-.631,36.89,36.89,0,0,1,24.376,15.073c.107.145.226.28.462.57a4.469,4.469,0,0,1,.261-.462,25.28,25.28,0,0,1,5.59-5,1.3,1.3,0,0,1,2.11,1.034c.007.112,0,.225,0,.337q0,24.148,0,48.3a5.432,5.432,0,0,1-2.979,5.109,5.454,5.454,0,0,1-7.447-2.366c-.083-.163-.169-.324-.3-.566-7.5,8.063-16.666,12.506-27.663,12.616C-1603.509,491.235-1612.78,487.051-1620.365,479.138Zm27.726,9.433a34.834,34.834,0,0,0,9.317-1.377,35.216,35.216,0,0,0,17.422-11.459,4.326,4.326,0,0,0,1.007-2.587c.3-3.6.663-7.2,1-10.8.2-2.163.4-4.327.618-6.489a.985.985,0,0,0-.34-.889q-.9-.851-1.737-1.758a5.446,5.446,0,0,1-1.591-3.335c-.112-1.678-.137-3.367-.1-5.049a20.43,20.43,0,0,1,.381-3.286,19.464,19.464,0,0,1,2.634-6.582.836.836,0,0,0-.036-1.062,34.353,34.353,0,0,0-24.568-15.031,33.6,33.6,0,0,0-14.867,1.4,34.708,34.708,0,0,0-14.782,9.366,1.459,1.459,0,0,0-.431,1.1q.022,5.481,0,10.963a3.813,3.813,0,0,1-1.956,3.556.9.9,0,0,0-.526,1.016c.236,2.875.449,5.752.658,8.63.425,5.848.857,11.7,1.252,17.546.082,1.21.006,2.429.031,3.644a1.086,1.086,0,0,0,.237.641,32.763,32.763,0,0,0,5.215,4.85A34.963,34.963,0,0,0-1592.639,488.571Zm-35.934-14.806h.014c-.017.281-.051.561-.047.842A5.384,5.384,0,0,0-1626.5,479a2.036,2.036,0,0,0,2.735-.039,5.413,5.413,0,0,0,2.017-4.5c-.037-1.441-.166-2.88-.271-4.319-.275-3.774-.561-7.548-.838-11.322q-.46-6.278-.9-12.557c-.026-.379-.181-.477-.522-.466-.543.016-1.089.031-1.63,0-.472-.031-.652.115-.685.613-.218,3.328-.463,6.653-.706,9.979Q-1627.932,465.077-1628.573,473.765Zm71.854-43.3-.159-.076c-.26.2-.529.4-.779.611a18.658,18.658,0,0,0-3.871,4.774,17.25,17.25,0,0,0-2.721,7.123c-.2,2.117-.174,4.259-.175,6.39a3.386,3.386,0,0,0,1.151,2.368c.516.517,1.007,1.061,1.556,1.54a1.518,1.518,0,0,0,.869.366c1.141.042,2.286-.015,3.427.03.574.023.719-.153.717-.721q-.029-10.9-.013-21.8Zm0,36.209c0-3.3-.009-6.592.01-9.888,0-.494-.142-.655-.638-.637-.954.035-1.91.028-2.865,0-.387-.01-.519.128-.552.5-.15,1.7-.325,3.391-.486,5.087q-.429,4.5-.851,9c-.175,1.883-.38,3.764-.495,5.65a2.908,2.908,0,0,0,4.01,2.883,3,3,0,0,0,1.861-2.88C-1556.715,473.154-1556.721,469.914-1556.719,466.675Zm-68.425-26.056c-.936,0-1.872-.006-2.808,0-1.229.01-1.108-.168-1.094,1.174a1.251,1.251,0,0,0,1.24,1.392c1.758.046,3.519.042,5.277,0a1.229,1.229,0,0,0,1.229-1.224c.027-.241,0-.488.019-.729.044-.458-.134-.635-.606-.624C-1622.972,440.636-1624.059,440.619-1625.145,440.619Z" transform="translate(1631.642 -415.984)" fill="#4a4a4a"/><path d="M-1479.248,811.6v.733c0,3.168-.007,6.335.005,9.5a1.4,1.4,0,0,1-.774,1.485,1.41,1.41,0,0,1-1.623-.43q-11.375-10.795-22.753-21.585a2.125,2.125,0,0,1-.614-.9c-.232-.874.4-1.566,1.4-1.577,1.406-.016,2.811-.005,4.217-.005h6.568c-.146-.219-.214-.339-.3-.445a1.259,1.259,0,0,1-.2-1.369,1.289,1.289,0,0,1,1.15-.774,5,5,0,0,1,.506-.007h22.267c1.35,0,1.785.432,1.785,1.786q0,10.543-.009,21.086a2.574,2.574,0,0,1-.225,1.135,1.24,1.24,0,0,1-1.936.27c-.456-.388-.882-.813-1.317-1.225q-3.813-3.616-7.626-7.233C-1478.854,811.925-1479,811.817-1479.248,811.6Zm-9.4-12.745-.073.145,18.344,17.386.171-.1v-.6c0-5.376-.007-10.752.01-16.128,0-.554-.145-.746-.725-.744-5.732.019-11.464.011-17.2.013C-1488.294,798.825-1488.471,798.848-1488.649,798.86Zm-11.589,2.616-.055.166,18.335,17.38.138-.089v-.548c0-2.9-.009-5.807.01-8.71a1.211,1.211,0,0,0-.427-.972q-3.619-3.408-7.216-6.84a1.393,1.393,0,0,0-1.041-.434c-3.053.015-6.107.007-9.16.01C-1499.849,801.439-1500.043,801.463-1500.238,801.476Z" transform="translate(1519.292 -753.463)" fill="#4a4a4a"/><path d="M-1492.581,477.846c.7.117,2.058.289,3.39.58a11.718,11.718,0,0,0,4.788-.116,25.13,25.13,0,0,1,3.33-.466,5.042,5.042,0,0,1,5.142,3.1c.633,1.328,1.093,2.741,1.6,4.127a8.648,8.648,0,0,0,1.59,2.688c.866,1.007,1.759,2,2.522,3.085a5.487,5.487,0,0,1,.045,6.7,12.648,12.648,0,0,1-1.571,1.974,13.25,13.25,0,0,0-3.284,5.792,13.233,13.233,0,0,1-1.139,2.614,5.026,5.026,0,0,1-5.008,2.668,20.221,20.221,0,0,1-3.55-.524,12.317,12.317,0,0,0-5.506.123,24.575,24.575,0,0,1-2.495.387,5.254,5.254,0,0,1-5.665-3.158,39.852,39.852,0,0,1-1.467-3.819,9.115,9.115,0,0,0-1.729-2.992,38.638,38.638,0,0,1-2.458-2.991,5.522,5.522,0,0,1-.014-6.8,13.614,13.614,0,0,1,1.583-1.965,12.87,12.87,0,0,0,3.162-5.544,14.326,14.326,0,0,1,1.164-2.726C-1497.1,478.672-1495.425,477.771-1492.581,477.846Zm-.636,2.5a2.872,2.872,0,0,0-2.82,1.719,10.472,10.472,0,0,0-.729,1.758,15.59,15.59,0,0,1-4.027,7.03,10.339,10.339,0,0,0-1.322,1.739,2.791,2.791,0,0,0-.009,3.225,13.256,13.256,0,0,0,1.391,1.828,14.511,14.511,0,0,1,3.551,5.717,24.571,24.571,0,0,0,1.116,2.931,2.767,2.767,0,0,0,3.1,1.7,23.342,23.342,0,0,0,2.383-.374,13.932,13.932,0,0,1,6.236-.119,26.91,26.91,0,0,0,3.047.49,2.757,2.757,0,0,0,3.076-1.654,14.947,14.947,0,0,0,.835-2.078,14.482,14.482,0,0,1,3.637-6.363,12.311,12.311,0,0,0,1.375-1.7,3.073,3.073,0,0,0,.009-3.952,13.915,13.915,0,0,0-1.415-1.741,13.981,13.981,0,0,1-3.469-5.95,16.125,16.125,0,0,0-1.052-2.593,2.577,2.577,0,0,0-2.7-1.539,26.381,26.381,0,0,0-2.995.444,13.464,13.464,0,0,1-5.517.136C-1490.741,480.747-1491.982,480.565-1493.217,480.35Z" transform="translate(1519.438 -470.878)" fill="#4a4a4a"/><path d="M-1149.212,546.856c0-3.861-.012-7.722.005-11.583a3.8,3.8,0,0,1,2.874-3.826,3.888,3.888,0,0,1,4.827,3.361c.013.187.015.375.015.562q0,11.5,0,23a3.843,3.843,0,0,1-2.8,3.887,3.821,3.821,0,0,1-4.886-3.367c-.08-2.49-.031-4.985-.036-7.477,0-1.518,0-3.036,0-4.554Zm5.051,4.565a1.893,1.893,0,0,0,.1-.371q.006-2.975,0-5.95a.566.566,0,0,0-.094-.364c-.779-.79-1.572-1.565-2.406-2.39a1.705,1.705,0,0,0-.064.285c0,2-.007,4,0,6.006a.711.711,0,0,0,.171.449C-1145.721,549.855-1144.967,550.606-1144.161,551.421Zm-2.41,1.246c-.034.267-.064.393-.064.519,0,1.742-.008,3.483,0,5.225a1.261,1.261,0,0,0,1.285,1.391,1.287,1.287,0,0,0,1.283-1.4q.015-1.432,0-2.865a.744.744,0,0,0-.122-.468C-1144.939,554.288-1145.709,553.53-1146.57,552.667Zm2.508-11.552c0-2.054.006-3.926,0-5.8a1.3,1.3,0,0,0-1.29-1.4,1.289,1.289,0,0,0-1.278,1.407c-.011.956-.008,1.911,0,2.867a.749.749,0,0,0,.118.472C-1145.75,539.45-1144.965,540.217-1144.062,541.115Z" transform="translate(1203.478 -518.34)" fill="#4a4a4a"/><path d="M-1397.895,562.262a7.8,7.8,0,0,1-7.769,7.753,7.823,7.823,0,0,1-7.725-7.812,7.79,7.79,0,0,1,7.785-7.738A7.754,7.754,0,0,1-1397.895,562.262Zm-2.572-.032a5.2,5.2,0,0,0-5.123-5.183,5.194,5.194,0,0,0-5.2,5.211,5.18,5.18,0,0,0,5.148,5.153A5.2,5.2,0,0,0-1400.467,562.23Z" transform="translate(1437.934 -538.892)" fill="#4a4a4a"/></svg>