<svg xmlns="http://www.w3.org/2000/svg" width="86.876" height="84.771" viewBox="0 0 86.876 84.771"><g transform="translate(-92.264 -262.5)"><path d="M95,323.431a2.731,2.731,0,0,1-2.656-3.39l3.991-16.031A28.751,28.751,0,1,1,150.7,288.346l-4.975.5a23.75,23.75,0,1,0-44.541,13.665l.461.852-3.516,14.125,15.169-4.162.746.269A23.66,23.66,0,0,0,122.1,315c.438,0,.932-.012,1.355-.034l.252,4.994c-.51.026-1.081.04-1.606.04a28.666,28.666,0,0,1-8.985-1.433l-17.4,4.773A2.722,2.722,0,0,1,95,323.431Z" transform="translate(0)" fill="#ffa63a"/><path d="M232.962,393.715a2.728,2.728,0,0,1-.9-.154L216.534,388.1a28.755,28.755,0,1,1-10.286-55.6c.226,0,.455,0,.681.008a28.835,28.835,0,0,1,28.051,27.775,28.984,28.984,0,0,1-.607,6.943,28.633,28.633,0,0,1-1.821,5.638l3.1,17.646a2.732,2.732,0,0,1-2.69,3.2Zm-16.57-10.965,13.664,4.807-2.7-15.381.344-.721a23.76,23.76,0,0,0-20.884-33.949c-.187,0-.378-.007-.565-.007a23.748,23.748,0,1,0,9.253,45.627Z" transform="translate(-56.554 -46.444)" fill="#ffa63a"/><g transform="translate(-0.484)"><circle cx="3.389" cy="3.389" r="3.389" transform="translate(135.138 311.559)" fill="#ffa63a"/><circle cx="3.389" cy="3.389" r="3.389" transform="translate(147.138 311.559)" fill="#ffa63a"/><circle cx="3.389" cy="3.389" r="3.389" transform="translate(159.138 311.559)" fill="#ffa63a"/></g></g></svg>