<svg xmlns="http://www.w3.org/2000/svg" width="73.259" height="65.625" viewBox="0 0 73.259 65.625"><path d="M-2982.764-422.674a3.651,3.651,0,0,1-.344-3.545,4.327,4.327,0,0,1,1.65-2.072,4.854,4.854,0,0,1,5.449.17,4.35,4.35,0,0,1,1.6,2.53c.2.844.2.922-.5,3.007l1.711.3a31.484,31.484,0,0,1,12.414,5.041,31.764,31.764,0,0,1,12.4,16.187,32.406,32.406,0,0,1,1.709,10.685c0,1.151-.087.971,1.007.984.622.007,1.244-.009,1.865.008a1.492,1.492,0,0,1,1.565,1.507,1.51,1.51,0,0,1-1.56,1.529c-1.5.027-3.005.015-4.508.015h-61.143c-1.485,0-2.971.018-4.456-.016a1.518,1.518,0,0,1-1.391-2.254,1.407,1.407,0,0,1,1.26-.776c.76-.01,1.52-.009,2.28-.011.721,0,.7,0,.728-.748.066-1.5.1-3,.258-4.5a30.2,30.2,0,0,1,4.119-12.265,31.935,31.935,0,0,1,15.421-13.429,29.907,29.907,0,0,1,7.811-2.133,2.957,2.957,0,0,0,.4-.086A1.527,1.527,0,0,0-2982.764-422.674Zm3.9,33.291h28.445c.684,0,.711,0,.682-.689-.059-1.413-.084-2.833-.24-4.236a27.728,27.728,0,0,0-5.161-13.363,28.6,28.6,0,0,0-18.988-11.843,28.167,28.167,0,0,0-14,1.131,28.686,28.686,0,0,0-15.021,11.546,28.927,28.927,0,0,0-4.832,16.693c.007.761,0,.762.771.762Zm.03-36.6a1.382,1.382,0,0,0-1.533,1.488,1.421,1.421,0,0,0,1.5,1.546,1.423,1.423,0,0,0,1.535-1.51A1.385,1.385,0,0,0-2978.836-425.985Z" transform="translate(3015.492 451.945)" fill="#4a4a4a"/><path d="M-2956.52-649.969a15.285,15.285,0,0,1,9.1,3.216,1.485,1.485,0,0,1,.519,1.925,1.556,1.556,0,0,1-1.789.794,15.822,15.822,0,0,0-3.252-.473,9.043,9.043,0,0,0-8.152,6.023,7.8,7.8,0,0,0,2.462,8.327,9.4,9.4,0,0,0,7.736,2.1,4.748,4.748,0,0,0,.887-.271,1.577,1.577,0,0,1,2.094.669,1.545,1.545,0,0,1-.711,2.067,16.155,16.155,0,0,1-5.578,2.636,14.346,14.346,0,0,1-14.186-4.079,13.267,13.267,0,0,1,2.829-20.718A15.309,15.309,0,0,1-2956.52-649.969Zm.466,3.258c-2.567-1.177-8.354,1.647-10.492,5.053a10.289,10.289,0,0,0,2.2,13.376c2.313,1.926,7.156,3.41,8.138,2.5-4.459-2.08-7.3-5.389-7.277-10.475S-2960.529-644.593-2956.054-646.711Z" transform="translate(2975.76 649.969)" fill="#4a4a4a"/><path d="M-2408.951-562.171a1.509,1.509,0,0,1-1.373-2.063c.279-.96.594-1.909.874-2.869a11.326,11.326,0,0,0-.916-9.148,13.135,13.135,0,0,1-1.561-7.133,22.756,22.756,0,0,1,1.314-5.833c.09-.3.174-.6.274-.89a1.509,1.509,0,0,1,1.87-1.045,1.49,1.49,0,0,1,1.036,1.911c-.371,1.31-.852,2.595-1.134,3.923a10.923,10.923,0,0,0,1.028,7.875,13.756,13.756,0,0,1,1.147,10.767c-.29,1.064-.634,2.113-.955,3.168C-2407.629-562.584-2408.155-562.147-2408.951-562.171Z" transform="translate(2474.501 597.309)" fill="#4a4a4a"/><path d="M-2511.909-569.854a1.552,1.552,0,0,1-1.383-2.251,25.6,25.6,0,0,0,1.133-2.825,4.892,4.892,0,0,0-.892-4.544,8.118,8.118,0,0,1-1.159-8.826c.268-.635.548-1.265.829-1.893a1.5,1.5,0,0,1,2.066-.893,1.547,1.547,0,0,1,.728,2.1,27.113,27.113,0,0,0-1.148,2.874,4.844,4.844,0,0,0,.89,4.5,8.138,8.138,0,0,1,1.178,8.826c-.272.651-.559,1.3-.847,1.942A1.558,1.558,0,0,1-2511.909-569.854Z" transform="translate(2566.886 597.321)" fill="#4a4a4a"/><path d="M-2642.73-603.427a2.241,2.241,0,0,1-2.268,2.256,2.266,2.266,0,0,1-2.287-2.251,2.307,2.307,0,0,1,2.306-2.3A2.285,2.285,0,0,1-2642.73-603.427Z" transform="translate(2685.452 610.309)" fill="#4a4a4a"/><path d="M-2750.114-530.536a1.484,1.484,0,0,1,1.513-1.5,1.527,1.527,0,0,1,1.512,1.523,1.524,1.524,0,0,1-1.533,1.5A1.481,1.481,0,0,1-2750.114-530.536Z" transform="translate(2777.623 544.262)" fill="#4a4a4a"/><path d="M-2877.849-263.367a1.507,1.507,0,0,1-1.314-2.289,24.7,24.7,0,0,1,5.627-7.481,24.788,24.788,0,0,1,5.664-3.869,1.538,1.538,0,0,1,2.08.395,1.493,1.493,0,0,1-.153,1.942,3.537,3.537,0,0,1-.822.526,20.622,20.622,0,0,0-7,5.711,43.978,43.978,0,0,0-2.627,4.077A1.664,1.664,0,0,1-2877.849-263.367Z" transform="translate(2893.469 315.874)" fill="#4a4a4a"/></svg>