<svg xmlns="http://www.w3.org/2000/svg" width="23.444" height="25.13" viewBox="0 0 23.444 25.13"><g transform="translate(506.281 -2778.626)"><path d="M-489.291,2795.091l-.058,0a14.546,14.546,0,0,1-8.992-3.088,4.9,4.9,0,0,1-1.725-2.3,4.7,4.7,0,0,1,.119-2.956,11.737,11.737,0,0,1,3.691-5.589A11.376,11.376,0,0,1-490,2778.7c.486-.046.966-.07,1.427-.07a10.516,10.516,0,0,1,6.586,2.116,8.712,8.712,0,0,1,2.985,4.047,7.38,7.38,0,0,1,.108,4.789,6.911,6.911,0,0,1-4.4,4.352,12.381,12.381,0,0,1-2.355.69c-.84.149-1.692.246-2.516.339-.348.04-.708.081-1.06.125Zm.713-14.965c-.413,0-.845.021-1.284.063a9.668,9.668,0,0,0-8.659,7.022,2.887,2.887,0,0,0,1.116,3.618,13.078,13.078,0,0,0,8.043,2.758c.341-.042.685-.081,1.018-.119.8-.091,1.629-.185,2.423-.326a10.906,10.906,0,0,0,2.069-.609,5.5,5.5,0,0,0,3.527-3.423,6.664,6.664,0,0,0-2.573-7.173A9.07,9.07,0,0,0-488.578,2780.126Zm-.9,10.651h-.026a12.15,12.15,0,0,1-5-1,1.507,1.507,0,0,1-.836-2.164,7.083,7.083,0,0,1,6.514-4.163,6.091,6.091,0,0,1,2.828.665,3.576,3.576,0,0,1,2.094,3.415,3.333,3.333,0,0,1-2.7,2.854,11.5,11.5,0,0,1-1.539.311c-.368.048-.732.06-1.024.07-.1,0-.2.006-.288.011Zm-4.529-2.431a1.186,1.186,0,0,0,.127.066,10.554,10.554,0,0,0,4.374.864c.091,0,.19-.008.293-.011.273-.009.582-.019.877-.058a9.963,9.963,0,0,0,1.337-.27,1.917,1.917,0,0,0,1.6-1.551,2.127,2.127,0,0,0-1.29-1.938,4.6,4.6,0,0,0-2.139-.5,5.628,5.628,0,0,0-5.125,3.227A1.239,1.239,0,0,0-494,2788.347Z" transform="translate(-5.179 0)" fill="#ffa63a"/><path d="M-506.133,2869.54l1.2,1.424c.265.315.522.641.793.986a19,19,0,0,0,1.912,2.189,10.422,10.422,0,0,0,6.16,2.565,11.009,11.009,0,0,0,1.234.073,7.25,7.25,0,0,0,4.464-1.4,9.79,9.79,0,0,0,1.416-1.4c.235-.264.477-.538.74-.81l.413-.429.511.3,2.32,1.382,2.137,1.273-.274.61a9.986,9.986,0,0,1-5.243,5.139,15.168,15.168,0,0,1-6.138,1.4,13.057,13.057,0,0,1-7.761-2.648,9.863,9.863,0,0,1-2.957-3.587,10.255,10.255,0,0,1-1.048-5.217Zm11.3,8.738a12.461,12.461,0,0,1-1.4-.083,11.856,11.856,0,0,1-7.012-2.957,15,15,0,0,1-1.357-1.469,8.743,8.743,0,0,0,3.236,5.217,11.591,11.591,0,0,0,6.881,2.363,13.685,13.685,0,0,0,5.53-1.271,8.431,8.431,0,0,0,4.188-3.785l-.968-.577-1.8-1.072c-.1.111-.2.222-.3.331a11.038,11.038,0,0,1-1.648,1.613A8.814,8.814,0,0,1-494.837,2878.278Z" transform="translate(0 -79.093)" fill="#ffa63a"/></g></svg>