<svg xmlns="http://www.w3.org/2000/svg" width="51.143" height="36.813" viewBox="0 0 51.143 36.813">
  <g id="Group_121" data-name="Group 121" transform="translate(-433.365 -180.291)">
    <path id="Path_1392" data-name="Path 1392" d="M483,186.6a4.215,4.215,0,0,0-3.346-1.6c-.058-.353-.086-.69-.17-1.011a4.192,4.192,0,0,0-4.263-3.178h-.041l-36.735-.018h0a4.476,4.476,0,0,0-2.377.659,4.588,4.588,0,0,0-2.2,3.919v26.57a4.687,4.687,0,0,0,1.08,3.042,4.557,4.557,0,0,0,3.5,1.624h.008l36.621-.062h0a4.531,4.531,0,0,0,2.855-.847,4.369,4.369,0,0,0,1.705-3.735c-.01-5.5,0-11-.01-16.493a1.2,1.2,0,0,1,.376-.939c1.013-1,2.044-1.993,2.978-3.067A3.968,3.968,0,0,0,483,186.6Zm-7.566,27.816h-.359l-36.627.062h-.011a2.356,2.356,0,0,1-1.153-.285,2.469,2.469,0,0,1-1.3-2.171v-26.6a2.521,2.521,0,0,1,.459-1.489,2.452,2.452,0,0,1,2-1.025h0l36.692.018h.084v-.012a2.153,2.153,0,0,1,2.3,2.517.721.721,0,0,1-.179.435q-1.088,1.084-2.181,2.162c-2.7,2.672-5.45,5.366-8.091,8.1a4.482,4.482,0,0,1-3.637,1.528c-6-.1-12.008-.04-18.013-.04-1,0-1.491.34-1.5,1.041s.469,1.062,1.475,1.063q8.81,0,17.62,0h.827c-.311,1.558-.6,3.008-.891,4.458-.037.184-.075.368-.1.554a1.019,1.019,0,0,0,1.276,1.242q2.574-.464,5.13-1.021a1.762,1.762,0,0,0,.791-.492c1.69-1.674,3.391-3.375,5.073-5.057l1.9-1.9c.129-.129.266-.252.467-.441.014.256.033.432.033.608q0,7.149,0,14.3A2.119,2.119,0,0,1,475.433,214.42Zm1.589-19.868q-.945.939-1.886,1.881h0c-2.045,2.041-4.113,4.111-6.166,6.144a1.909,1.909,0,0,1-.86.457c-.922.224-1.857.392-2.911.607.247-1.186.463-2.261.7-3.331a.873.873,0,0,1,.269-.352c2.982-2.986,5.995-6,8.98-8.978.085-.079.181-.146.258-.209l2.819,2.795A15.447,15.447,0,0,0,477.022,194.551Zm4.313-4.406a21.984,21.984,0,0,1-1.756,1.656l-2.629-2.647c.588-.558,1.159-1.179,1.811-1.7a1.888,1.888,0,0,1,2.573,2.69Z" transform="translate(0 0)" fill="#ffa63a" stroke="#ffa63a" stroke-width="1"/>
    <path id="Path_1393" data-name="Path 1393" d="M496.458,247.337a5.572,5.572,0,0,0,.618.018H508q5.545,0,11.09,0a3.737,3.737,0,0,0,.727-.054,1.012,1.012,0,0,0,.153-1.941,2.54,2.54,0,0,0-.828-.1q-11.09-.008-22.18,0c-.15,0-.3-.007-.45,0a1.044,1.044,0,0,0-1.062,1.022A1.012,1.012,0,0,0,496.458,247.337Z" transform="translate(-51.529 -53.935)" fill="#ffa63a" stroke="#ffa63a" stroke-width="1"/>
    <path id="Path_1394" data-name="Path 1394" d="M509.43,322.608a2.336,2.336,0,0,0-.717-.093c-1.968-.007-3.937,0-5.905,0h-5.849c-1.038,0-1.536.351-1.524,1.071.011.7.486,1.032,1.5,1.032q5.849,0,11.7,0a3.455,3.455,0,0,0,.67-.056.95.95,0,0,0,.8-.956A.936.936,0,0,0,509.43,322.608Z" transform="translate(-51.519 -118.584)" fill="#ffa63a" stroke="#ffa63a" stroke-width="1"/>
  </g>
</svg>
