<svg xmlns="http://www.w3.org/2000/svg" width="32.661" height="32.647" viewBox="0 0 32.661 32.647"><g transform="translate(1820.865 286.457)"><path d="M-1804.536-253.81H-1815.8a4.919,4.919,0,0,1-2.541-.628,4.8,4.8,0,0,1-2.514-4.373c-.017-5.371-.005-10.742-.007-16.113a1.711,1.711,0,0,1,.822-1.522q7.239-4.819,14.47-9.649a1.661,1.661,0,0,1,2.065,0q7.245,4.832,14.49,9.665a1.7,1.7,0,0,1,.807,1.507c0,5.371.016,10.742-.009,16.113a4.788,4.788,0,0,1-2.942,4.588,4.922,4.922,0,0,1-2.139.416Zm-.007-3.269h.126q5.581,0,11.163,0a1.626,1.626,0,0,0,1.765-1.686q.006-7.6,0-15.2a.391.391,0,0,0-.143-.281q-6.378-4.263-12.762-8.515a.217.217,0,0,0-.286,0q-6.38,4.258-12.762,8.515a.39.39,0,0,0-.148.278q-.011,7.589,0,15.179a1.91,1.91,0,0,0,.167.78,1.623,1.623,0,0,0,1.619.941Q-1810.175-257.083-1804.543-257.079Z" fill="#ffa63a"/></g></svg>