<svg xmlns="http://www.w3.org/2000/svg" width="173.698" height="164.073" viewBox="0 0 173.698 164.073"><g transform="translate(-754.188 -277.993)"><g transform="translate(798.107 277.993)"><path d="M906.694,306.878H849.078a28.529,28.529,0,0,1,11.777-22.76c9.026-6.863,19.019-8.109,29.2-2.969C900.345,286.344,905.824,295.044,906.694,306.878Z" transform="translate(-836.384 -277.993)" fill="#ffa63a"/><path d="M914.173,329.449c-.335,1.452-.811,3.358-1.466,5.646-27.809,0-55.613-.033-83.421.054-.666-2.328-1.15-4.253-1.484-5.7Z" transform="translate(-827.801 -298.75)" fill="#ffa63a"/><rect width="12.336" height="31.537" transform="translate(36.649 39.048)" fill="#ffa63a"/><rect width="12.26" height="31.606" transform="translate(51.313 38.997)" fill="#ffa63a"/><path d="M950.43,343.443v16.294c-2.03,4.719-4.49,9.848-7.451,15.239h-4.762V343.443Z" transform="translate(-872.341 -304.395)" fill="#ffa63a"/><path d="M834.535,343.291v8.727c-1.2-3.224-2.182-6.159-2.972-8.727Z" transform="translate(-829.319 -304.333)" fill="#ffa63a"/><path d="M852.813,343.376v31.5H848.68a177.09,177.09,0,0,1-8.08-16.719V343.376Z" transform="translate(-832.964 -304.368)" fill="#ffa63a"/><rect width="12.158" height="31.563" transform="translate(22.286 39.016)" fill="#ffa63a"/><path d="M966.31,343.443c-.931,3.027-2.125,6.556-3.642,10.474V343.443Z" transform="translate(-882.205 -304.395)" fill="#ffa63a"/></g><path d="M906.981,326.5c-1.487,7.3-11.083,47.585-47.2,83.809q-3.208-3.217-6.145-6.471C819.1,365.613,812.368,325.3,812.368,325.3s-7.373,27.789,10.039,55.182a207.472,207.472,0,0,0,32.21,34.814q-5.482,5.081-11.731,9.966c-6.094-5.112-17.832-4.456-28.273,2.1-11.98,7.523-17.712,19.96-12.8,27.776,2.206,3.515,6.2,5.483,11,5.917l.024.036.056-.031c5.867.508,12.936-1.267,19.5-5.39,10.7-6.721,16.393-17.351,13.993-25.117-.006-.384-.017-.618-.02-.665,3.1-2.164,7.822-5.622,13.428-10.222,5.607,4.6,10.329,8.058,13.429,10.222-.022.342-.638,10.781,5.7,15.205,6.431,4.5,27.83,16,27.83,16l1.222-1.865L884.4,443.789a1.522,1.522,0,1,1,1.668-2.547l23.573,15.445,2.022-3.089-23.572-15.442a1.526,1.526,0,1,1,1.672-2.553l23.573,15.442,2.023-3.086-23.573-15.444a1.522,1.522,0,1,1,1.669-2.546l23.572,15.442,1.222-1.865s-19.087-15.025-25.781-19.124c-5.815-3.57-13.84,0-15.771.864l0,0c-4.17-3.256-8.066-6.6-11.727-9.99a211.114,211.114,0,0,0,29.879-31.657c.486-.931,1.036-1.915,1.741-3.018A75.469,75.469,0,0,0,906.981,326.5Z" transform="translate(-18.501 -19.084)" fill="#ffa63a"/><g transform="translate(754.188 306.571)"><path d="M1013.574,351.605c9.23-13.367-2.128-25.711-2.128-25.711C1003.495,345.64,1013.574,351.605,1013.574,351.605Z" transform="translate(-856.73 -325.894)" fill="#ffa63a"/><path d="M983.064,406.9c-4.954,7.316-5.627,13.113-4.862,17.3a14.365,14.365,0,0,0,4.1,7.9v0l.006,0,.035.031.008-.01c.924.459,15.227,7.133,26.34-13.333,0,0-15.2,1.056-22.637,7.507a16.911,16.911,0,0,0,.832-5.112C987.027,413.778,983.064,406.9,983.064,406.9Z" transform="translate(-844.445 -358.572)" fill="#ffa63a"/><path d="M959.029,434.662c-8.342,10.718-2.808,18.983-2.808,18.983s.025-.018.041-.027c-.006.012-.014.022-.019.034s8.3,12.006,29.031-3.694c0,0-15.675-4.026-24.312-.427,3.462-4.667,3.984-10.986,3.83-15.338a35.613,35.613,0,0,0-.5-4.963A36.383,36.383,0,0,0,959.029,434.662Z" transform="translate(-834.959 -367.578)" fill="#ffa63a"/><path d="M1007.362,371.107c-.31-9.116-9.483-16.459-9.483-16.459-3.209,18.245,7.961,22.239,8.329,22.365a.232.232,0,0,1,0,.035,14.128,14.128,0,0,0,7.424-1.6c4.531-2.27,9.9-7.618,12.324-20.1a52.777,52.777,0,0,0-10.652,6.3C1012.065,364.157,1008.976,367.353,1007.362,371.107Z" transform="translate(-852.256 -337.493)" fill="#ffa63a"/><path d="M1000.674,398.913c.266-9.18-7.875-17.86-7.875-17.86-6.241,18.271,5.367,24.523,5.788,24.744a.367.367,0,0,0,.006.037,16.653,16.653,0,0,0,10.456-3.031c3.9-2.634,7.987-7.477,10.508-16.454a78.018,78.018,0,0,0-9.073,4.611C1006.867,393.115,1003.023,395.876,1000.674,398.913Z" transform="translate(-849.698 -348.144)" fill="#ffa63a"/><path d="M779.993,351.605s10.079-5.965,2.128-25.711C782.121,325.894,770.763,338.239,779.993,351.605Z" transform="translate(-763.139 -325.894)" fill="#ffa63a"/><path d="M795.662,406.9s-3.964,6.876-3.817,14.287a16.908,16.908,0,0,0,.831,5.112c-7.437-6.451-22.635-7.507-22.635-7.507,11.112,20.466,25.416,13.792,26.34,13.333,0,0,0,.007.009.01l.035-.031.006,0v0a14.369,14.369,0,0,0,4.1-7.9C801.289,420.015,800.615,414.218,795.662,406.9Z" transform="translate(-760.583 -358.572)" fill="#ffa63a"/><path d="M814.361,429.23a35.749,35.749,0,0,0-.5,4.963c-.154,4.352.369,10.671,3.831,15.338-8.637-3.6-24.312.427-24.312.427,20.733,15.7,29.031,3.694,29.031,3.694s-.013-.022-.019-.034c.014.009.026.02.041.027s5.535-8.266-2.808-18.983A36.4,36.4,0,0,0,814.361,429.23Z" transform="translate(-769.998 -367.578)" fill="#ffa63a"/><path d="M773.936,377.048c0-.012,0-.023,0-.035.369-.126,11.538-4.12,8.329-22.365,0,0-9.172,7.343-9.482,16.459-1.613-3.754-4.7-6.95-7.942-9.46a52.768,52.768,0,0,0-10.651-6.3c2.423,12.482,7.794,17.83,12.323,20.1A14.133,14.133,0,0,0,773.936,377.048Z" transform="translate(-754.188 -337.493)" fill="#ffa63a"/><path d="M781.588,405.834c0-.012,0-.025.006-.037.422-.221,12.029-6.473,5.787-24.744,0,0-8.141,8.68-7.874,17.86-2.349-3.037-6.193-5.8-9.81-7.954a77.982,77.982,0,0,0-9.072-4.611c2.52,8.977,6.607,13.82,10.508,16.454A16.653,16.653,0,0,0,781.588,405.834Z" transform="translate(-756.785 -348.144)" fill="#ffa63a"/></g><path d="M858.192,402.2v-6.175l-4.256-.225,1.014,1.576Z" transform="translate(-40.237 -47.521)" fill="#ffa63a"/><path d="M865.155,394.569v9.659l11.985,16.541.173-26.2-8.16-2.547Z" transform="translate(-44.763 -45.998)" fill="#ffa63a"/><path d="M889.229,396.3v30.929l5.893,7.5,6.661-8.051-.218-30.382" transform="translate(-54.474 -49.812)" fill="#ffa63a"/><path d="M938.217,395.93v7.106a84.133,84.133,0,0,0,5.059-7.649Z" transform="translate(-74.235 -47.356)" fill="#ffa63a"/><path d="M926.068,394.911v10.3l-12.187,15.507-.073-25.8,6.13-2.105Z" transform="translate(-64.389 -46.314)" fill="#ffa63a"/></g></svg>