<svg xmlns="http://www.w3.org/2000/svg" width="28.007" height="36.758" viewBox="0 0 28.007 36.758"><path d="M-37.329,137.945a11.428,11.428,0,0,0-8.134,3.369,11.428,11.428,0,0,0-3.369,8.134,17.275,17.275,0,0,0,1.913,7.477,33.515,33.515,0,0,0,4.443,6.721,49.583,49.583,0,0,0,5.149,5.293,49.486,49.486,0,0,0,5.082-5.216,33.69,33.69,0,0,0,4.484-6.751,17.311,17.311,0,0,0,1.936-7.525,11.428,11.428,0,0,0-3.369-8.134,11.428,11.428,0,0,0-8.134-3.369m0,19.33a7.835,7.835,0,0,1-7.826-7.826,7.835,7.835,0,0,1,7.826-7.826,7.835,7.835,0,0,1,7.826,7.826,7.835,7.835,0,0,1-7.826,7.826m0-21.83a14,14,0,0,1,14,14c0,12-14,22.755-14,22.755s-14-10.752-14-22.755A14,14,0,0,1-37.329,135.445Zm0,19.33A5.326,5.326,0,0,0-32,149.448a5.326,5.326,0,0,0-5.326-5.326,5.326,5.326,0,0,0-5.326,5.326A5.326,5.326,0,0,0-37.329,154.775Z" transform="translate(51.332 -135.445)" fill="#4a4a4a"/></svg>