<svg xmlns="http://www.w3.org/2000/svg" width="64.178" height="84.233" viewBox="0 0 64.178 84.233"><path d="M-19.243,140.445a26.914,26.914,0,0,0-10.542,2.127,27.007,27.007,0,0,0-8.612,5.808,27.006,27.006,0,0,0-5.808,8.612,26.914,26.914,0,0,0-2.127,10.543A40.313,40.313,0,0,0-41.869,185,77.577,77.577,0,0,0-31.58,200.559a114.46,114.46,0,0,0,12.337,12.609A114.459,114.459,0,0,0-6.905,200.559,77.577,77.577,0,0,0,3.384,185a40.313,40.313,0,0,0,4.463-17.466A26.917,26.917,0,0,0,5.72,156.991a27,27,0,0,0-5.807-8.612A27,27,0,0,0-8.7,142.572a26.917,26.917,0,0,0-10.543-2.127m0,44.294a17.225,17.225,0,0,1-17.205-17.205,17.225,17.225,0,0,1,17.205-17.205A17.225,17.225,0,0,1-2.038,167.534a17.225,17.225,0,0,1-17.205,17.205m0-49.294a32.088,32.088,0,0,1,32.089,32.089c0,27.5-32.089,52.144-32.089,52.144s-32.089-24.639-32.089-52.144A32.09,32.09,0,0,1-19.243,135.445Zm0,44.294A12.205,12.205,0,0,0-7.038,167.534a12.2,12.2,0,0,0-12.205-12.205,12.205,12.205,0,0,0-12.205,12.205A12.205,12.205,0,0,0-19.243,179.739Z" transform="translate(51.332 -135.445)" fill="#ffa63a"/></svg>