<svg xmlns="http://www.w3.org/2000/svg" width="83.026" height="83" viewBox="0 0 83.026 83"><g transform="translate(0)"><path d="M-2668.005,420.785l1.529-1.229c.144.134.315.283.477.444q3.861,3.859,7.729,7.713a1.194,1.194,0,0,0,.751.351,36.119,36.119,0,0,1,7.728.672,2.179,2.179,0,0,0,.332,0V428.1q0-5.461,0-10.923a5.143,5.143,0,0,0-3.754-5.224,7.815,7.815,0,0,1-5.616-7.839q0-8.073,0-16.146a4,4,0,0,1,3.946-4.06,4,4,0,0,1,4.077,4.049c.019,3.522.006,7.044.006,10.566,0,.871-.008,1.741,0,2.612a1.358,1.358,0,0,0,1.336,1.5,1.352,1.352,0,0,0,1.333-1.5c.006-4.393-.006-8.786.008-13.179a4,4,0,0,1,4.078-4.048,4.014,4.014,0,0,1,3.951,4.061c.016,4.294,0,8.588.007,12.882a3.816,3.816,0,0,0,.033.71,1.324,1.324,0,0,0,1.313,1.074,1.341,1.341,0,0,0,1.305-1.157,4.754,4.754,0,0,0,.019-.652c0-4.294-.005-8.588,0-12.882a4,4,0,0,1,2.637-3.8,3.988,3.988,0,0,1,4.419,1.165,3.741,3.741,0,0,1,.966,2.492c.008,5.659.033,11.319-.011,16.978a7.678,7.678,0,0,1-5.334,7.07,5.271,5.271,0,0,0-3.934,4.159,4.13,4.13,0,0,0-.077.825q-.007,7.035,0,14.069c0,.135.019.269.029.408.933-.419,1.82-.9,2.759-1.225a12.034,12.034,0,0,1,15.815,9.6,11.73,11.73,0,0,1-.452,5.386c-.128.4,0,.54.313.745a27.81,27.81,0,0,1,2.9,2.037,4.081,4.081,0,0,1,1.405,3.331q-.051,2.344,0,4.689a4.456,4.456,0,0,1-1.606,3.492,16.472,16.472,0,0,1-5.78,3.18,62.764,62.764,0,0,1-12.277,2.864,154.551,154.551,0,0,1-25.686,1.447c-4.867-.1-9.726-.4-14.56-.985a71.67,71.67,0,0,1-15.745-3.335,16.965,16.965,0,0,1-5.6-3.025,4.666,4.666,0,0,1-1.763-3.9c.067-1.5.035-3.007.008-4.511a4.25,4.25,0,0,1,1.242-3.108,13.592,13.592,0,0,1,5.294-3.175,1.392,1.392,0,0,0,.961-1.108c1.5-5.812,5.223-9.373,11.042-10.754a1.306,1.306,0,0,0,1.089-1.047,14.4,14.4,0,0,0,.464-4.335q-.03-6.411,0-12.822a5.481,5.481,0,0,0-1.786-4.179c-3.953-3.746-5.246-8.44-4.821-13.706a15.181,15.181,0,0,1,3.716-9.062,10.574,10.574,0,0,1,8.5-3.887,10.807,10.807,0,0,1,8.745,4.857,16.606,16.606,0,0,1,2.928,11.758,15.382,15.382,0,0,1-4.042,9.288c-.446.477-.939.911-1.354,1.412a4.992,4.992,0,0,0-1.186,3.278q0,3.053,0,6.106Zm25.971,13.752c-.969-.478-1.925-.986-2.911-1.429a29.5,29.5,0,0,0-13.433-2.34,1.152,1.152,0,0,0-.627.261,14.1,14.1,0,0,1-6.227,2.9,1.158,1.158,0,0,0-.979,1.009,18.258,18.258,0,0,1-1.091,3.31,13.977,13.977,0,0,1-10.139,7.9,1.2,1.2,0,0,0-.994.995,31.045,31.045,0,0,1-1.516,4.159,13.576,13.576,0,0,1-3.451,4.183l-2.844-2.96c-.174,1.074-.325,2.027-.484,2.978-.057.337.115.461.413.515,3.052.553,6.088,1.229,9.16,1.635,3.388.448,6.8.785,10.217.925,4.761.195,9.531.163,14.3.222a4.26,4.26,0,0,0,.594-.074l.108-.213a4.389,4.389,0,0,1-.577-.409,11.928,11.928,0,0,1-1.8-14.964,11.8,11.8,0,0,1,10.4-5.689c.2,0,.512-.089.588-.233C-2642.889,436.383-2642.5,435.52-2642.034,434.538Zm-34.2-9.273c.161-.069.206-.075.23-.1a14.667,14.667,0,0,1,4.8-3.511.858.858,0,0,0,.3-.663c.023-2.156.006-4.312.017-6.467a7.864,7.864,0,0,1,2.327-5.6c.467-.483.966-.939,1.4-1.453a12.8,12.8,0,0,0,2.883-7.27,14.1,14.1,0,0,0-2.546-9.994c-3.431-4.654-9.381-4.856-13.109-.45a12.61,12.61,0,0,0-2.865,7.028c-.48,4.638.612,8.732,4.112,12.029a7.69,7.69,0,0,1,2.452,5.842c-.009,3.3,0,6.606,0,9.909Zm34.8,6.537v-.783q0-6.916,0-13.833a7.819,7.819,0,0,1,5.56-7.762,5.152,5.152,0,0,0,3.81-5.3q0-7.866,0-15.733a5.105,5.105,0,0,0-.014-.593,1.342,1.342,0,0,0-1.324-1.2,1.341,1.341,0,0,0-1.318,1.209,6.181,6.181,0,0,0-.012.653q0,6.352,0,12.7a4.033,4.033,0,0,1-4.029,4.166,4.032,4.032,0,0,1-4-4.188c-.007-2.553,0-5.106,0-7.659,0-1.84.01-3.681-.008-5.521a1.328,1.328,0,0,0-1.347-1.365,1.337,1.337,0,0,0-1.311,1.343c-.012.217-.005.435-.005.653,0,4.215.009,8.43-.006,12.646a4.03,4.03,0,0,1-3.8,4.088,4.009,4.009,0,0,1-4.222-4.023c-.016-4.373,0-8.747-.007-13.121,0-.966-.507-1.57-1.31-1.586-.823-.017-1.363.6-1.363,1.594q0,8.1,0,16.208a5.112,5.112,0,0,0,3.62,4.962,7.831,7.831,0,0,1,5.747,7.926c0,3.9.008,7.8-.009,11.7a.687.687,0,0,0,.532.767c1.092.4,2.17.848,3.245,1.3C-2642.513,431.252-2642.03,431.513-2641.433,431.8Zm-54.8,23.225a2.608,2.608,0,0,0,1.31,3.038,15.886,15.886,0,0,0,1.639.949,41.024,41.024,0,0,0,9.96,3.006,116.406,116.406,0,0,0,15.829,1.907,156.412,156.412,0,0,0,31.962-1.232,61.065,61.065,0,0,0,11.412-2.667,15.017,15.017,0,0,0,4.52-2.3,2.517,2.517,0,0,0,.873-2.684c-1.012.508-1.971,1.057-2.981,1.487a58.319,58.319,0,0,1-14.746,3.651A135.518,135.518,0,0,1-2651,461.413,142.992,142.992,0,0,1-2685,459.024a33.331,33.331,0,0,1-10.951-3.885A1.866,1.866,0,0,0-2696.237,455.026Zm60.762-1.934a3.183,3.183,0,0,0-.395-.209,11.958,11.958,0,0,1-7.354-6.942.7.7,0,0,0-.732-.456,4.041,4.041,0,0,0-4.092,3.264,3.988,3.988,0,0,0,2.395,4.434,14.055,14.055,0,0,0,1.5.421v2.524c-2.766.3-5.9-2.237-6.486-5.179a6.588,6.588,0,0,1,.849-4.958,6.748,6.748,0,0,1,5.678-3.219v-2.666c-.531.059-1.017.1-1.5.169a9.464,9.464,0,0,0-7.794,8.016,9.491,9.491,0,0,0,4.744,9.373,4.651,4.651,0,0,0,2.73.829c1.553-.165,3.111-.29,4.667-.437a3.82,3.82,0,0,0,1.225-.163A9.142,9.142,0,0,0-2635.475,453.092Zm3.412-2.263a9.39,9.39,0,0,0,9.371-9.358,9.386,9.386,0,0,0-9.362-9.365,9.387,9.387,0,0,0-9.371,9.356A9.392,9.392,0,0,0-2632.063,450.829Zm-32.484-25.755a8.736,8.736,0,0,1-1.182-1.026,1.831,1.831,0,0,0-2.187-.668c-4.712,1.268-7.707,4.2-8.8,8.96a3.766,3.766,0,0,1-3.2,3.251,11.579,11.579,0,0,0-9.216,9.734.661.661,0,0,0,.079.487c.583.634,1.2,1.242,1.8,1.859l.234-.021c.253-.689.509-1.377.758-2.067a19.555,19.555,0,0,1,1.2-3.256,8.9,8.9,0,0,1,6.285-4.232,5.71,5.71,0,0,0,4.507-4.312c.179-.605.259-1.244.474-1.834a8.531,8.531,0,0,1,6.366-5.709A6.7,6.7,0,0,0-2664.548,425.073ZM-2683.36,451.6c.259-.346.439-.578.61-.818a12.612,12.612,0,0,0,1.82-4.6,3.184,3.184,0,0,1,2.571-2.557,12.668,12.668,0,0,0,5.082-2.168,11.967,11.967,0,0,0,4.569-7.458,3.159,3.159,0,0,1,2.593-2.6c.616-.142,1.232-.293,1.833-.486a9.633,9.633,0,0,0,3.505-1.936c-.589-.57-1.129-1.12-1.705-1.629a.566.566,0,0,0-.537-.023,9.21,9.21,0,0,1-3.536,1.459,5.946,5.946,0,0,0-4.911,4.78,11.61,11.61,0,0,1-.534,1.878,8.565,8.565,0,0,1-6.476,5.356,6.016,6.016,0,0,0-5.066,4.915,9.411,9.411,0,0,1-1.5,3.644.522.522,0,0,0,.029.5C-2684.5,450.43-2683.96,450.975-2683.36,451.6Zm48.611,5.568a2.267,2.267,0,0,0,.377,0c2.376-.505,4.767-.952,7.123-1.54a22.924,22.924,0,0,0,6.658-2.585,8.5,8.5,0,0,0,1.6-1.381,1.077,1.077,0,0,0,.109-1.424,7.1,7.1,0,0,0-3-2.238,1.88,1.88,0,0,0-.152.14c-.061.078-.118.159-.176.238a11.469,11.469,0,0,1-8.8,5.04,2.363,2.363,0,0,0-2.507,1.728A11.424,11.424,0,0,1-2634.748,457.17Zm-61.691-6.364a5.974,5.974,0,0,0,.592,1.062,5.822,5.822,0,0,0,1.108.969,20.287,20.287,0,0,0,4.9,2.185c.385.131.469-.059.532-.387.25-1.3.541-2.585.772-3.884a1.039,1.039,0,0,0-.2-.771c-.52-.592-1.1-1.129-1.661-1.687-1.075-1.077-1.1-1.118-2.459-.4a20.639,20.639,0,0,0-2.689,1.7A5.212,5.212,0,0,0-2696.439,450.806Z" transform="translate(2699.007 -383.902)" fill="#4a4a4a"/><path d="M-2382.8,891.558h2.584v2.606h-2.584Z" transform="translate(2420.343 -831.279)" fill="#4a4a4a"/><path d="M-2380.25,970.6v2.578h-2.619V970.6Z" transform="translate(2420.407 -900.933)" fill="#4a4a4a"/><path d="M-2346.314,826.252h-2.628v-2.66c.784,0,1.567-.01,2.35.013a.4.4,0,0,1,.266.288C-2346.3,824.659-2346.314,825.424-2346.314,826.252Z" transform="translate(2390.508 -771.382)" fill="#4a4a4a"/><path d="M-2402.692,812.665v2.6h-2.595v-2.6Z" transform="translate(2440.163 -761.754)" fill="#4a4a4a"/><path d="M-2450.481,905.506v-2.583h2.6v2.583Z" transform="translate(2479.991 -841.295)" fill="#4a4a4a"/><path d="M-2492.849,950.579h-2.591v-2.615h2.591Z" transform="translate(2519.611 -880.988)" fill="#4a4a4a"/><path d="M-2450.563,973.1v-2.6h2.6v2.6Z" transform="translate(2480.063 -900.847)" fill="#4a4a4a"/><path d="M-2184.806,825.735a6.709,6.709,0,0,1-6.717-6.652,6.7,6.7,0,0,1,6.694-6.732,6.708,6.708,0,0,1,6.69,6.679A6.713,6.713,0,0,1-2184.806,825.735Zm-.052-2.684a4.025,4.025,0,0,0,4.037-3.968,4.019,4.019,0,0,0-3.955-4.047,4.016,4.016,0,0,0-4.065,4A4.021,4.021,0,0,0-2184.859,823.051Z" transform="translate(2251.781 -761.477)" fill="#4a4a4a"/></g></svg>