<svg xmlns="http://www.w3.org/2000/svg" width="83.165" height="74.222" viewBox="0 0 83.165 74.222"><g transform="translate(-443.893 -173.218)"><path d="M485.378,247.44H461.545c-2.023,0-2.693-.637-2.767-2.677q-.421-11.438-.83-22.876c-.062-1.685.168-1.644-1.645-2.208a17.523,17.523,0,0,1-12.355-15.948c-.732-9.877,6.006-16.939,13.843-19.257,2.412-.714,5.021-.751,7.531-1.156a2.014,2.014,0,0,0,1.258-.67c3.64-5.411,8.86-8.195,15.163-9.131a23.884,23.884,0,0,1,17.314,3.8,16.95,16.95,0,0,1,5.039,5.13,1.733,1.733,0,0,0,1.693.91c7.014.044,12.992,2.421,17.518,7.962,7.327,8.971,3.773,25.241-9.331,28.549a1.257,1.257,0,0,0-1.073,1.4c-.244,7.767-.53,15.532-.794,23.3-.077,2.266-.7,2.877-3,2.877Zm.108-4.138v0q10.605,0,21.21.009c.847,0,1.351-.119,1.383-1.178.232-7.7.528-15.393.792-23.09.066-1.908.653-2.427,2.5-2.867a19.573,19.573,0,0,0,5-1.765c7.24-4.049,9.281-15.688,2.1-22.222a17.79,17.79,0,0,0-14.129-4.593c-1.858.162-2.209-.055-3.051-1.716a12.792,12.792,0,0,0-3.721-4.489c-5.419-4.086-11.472-4.941-17.907-3.21-4.267,1.148-7.843,3.43-9.928,7.48a3.144,3.144,0,0,1-3.59,1.933,17.462,17.462,0,0,0-10.863,2.462,14.017,14.017,0,0,0-7.043,14.736c1.154,6.456,4.986,10.254,11.56,11.461a2.189,2.189,0,0,1,2.15,2.47q.4,11.282.805,22.565c.072,2.019.076,2.019,2.145,2.019Z" fill="#ffa63a"/><path d="M552.055,265.163a14.573,14.573,0,0,1,1.5,1.1c4.069,3.993,8.092,8.033,12.187,12,5.8,5.622,11.706,11.143,17.462,16.813a85.224,85.224,0,0,1,5.774,6.647,7.5,7.5,0,0,1,1.2,2.311c.39,1.129-.273,1.9-1.4,1.537a8.835,8.835,0,0,1-3.208-1.68c-3.119-2.852-6.192-5.766-9.121-8.811-2.762-2.872-5.324-5.936-7.966-8.922a3.318,3.318,0,0,0-2.369-1.145,8.854,8.854,0,0,1-5.115-2.686,37.989,37.989,0,0,1-9.676-13.3,5.6,5.6,0,0,1-.365-2.538C550.98,266.067,551.6,265.683,552.055,265.163Z" transform="translate(-84.561 -72.638)" fill="#ffa63a"/><path d="M668.4,266.684l-7.547,7.381c.4.951.821.962,1.433.339,2.01-2.044,4.049-4.06,6.079-6.085.294-.293.6-.574.892-.853.622.314.894.661.346,1.228-2.766,2.866-5.477,5.787-8.31,8.583a7.472,7.472,0,0,1-6.058,2.107,2.2,2.2,0,0,0-1.066.461c-.17.1-.273.314-.406.476-1.713,2.093-2.043,2.063-3.645-.417.708-.581,1.473-1.127,2.129-1.783a1.861,1.861,0,0,0,.546-1.23,7.5,7.5,0,0,1,2-5.795c2.961-3.059,6.036-6.008,8.988-8.927,1.114.465.979.878.422,1.425-2.1,2.06-4.168,4.145-6.245,6.225-.2.2-.461.4-.514.641-.045.2.156.656.274.664a1.237,1.237,0,0,0,.875-.255c2.1-2.053,4.173-4.135,6.253-6.209.124-.123.23-.323.374-.355a6.018,6.018,0,0,1,.959-.071c-.025.319.078.761-.093.939-1.623,1.689-3.293,3.334-4.951,4.99a19.767,19.767,0,0,0-1.615,1.645c-.189.24-.109.692-.152,1.047.351-.043.83.045,1.033-.151q3.282-3.174,6.479-6.435C667.523,265.617,667.92,265.724,668.4,266.684Z" transform="translate(-162.923 -70.273)" fill="#ffa63a"/><path d="M550.547,386.3c-1.266,0-1.852-.565-1.56-1.491a8.723,8.723,0,0,1,1.543-3.152q4.128-4.667,8.511-9.1c1.715-1.74,3.645-3.266,5.452-4.917a.9.9,0,0,1,1.485.023c2.387,2.3,2.473,2.343.169,4.757-3.546,3.715-7.166,7.361-10.824,10.966a17.955,17.955,0,0,1-3.147,2.25A8.539,8.539,0,0,1,550.547,386.3Z" transform="translate(-82.966 -153.296)" fill="#ffa63a"/></g></svg>