<svg xmlns="http://www.w3.org/2000/svg" width="80.268" height="80.231" viewBox="0 0 80.268 80.231"><g transform="translate(-183.61 -3555.548)"><g transform="translate(183.61 3555.548)"><path d="M183.652,3595.715q0-18.456,0-36.912c0-2.959,1.155-3.867,3.941-2.853a9.853,9.853,0,0,1,3.225,2.056c2.208,2.06,3.492,2.109,5.642-.066,3.161-3.2,7.229-3.174,10.455.062,2.089,2.1,3.35,2.1,5.5,0,3.369-3.276,7.2-3.267,10.595.024,2.16,2.094,3.2,2.1,5.353.029,3.485-3.354,7.329-3.345,10.716.026,2.019,2.01,3.273,2.009,5.35-.062a7.26,7.26,0,0,1,4.669-2.367c1.893-.137,2.588.493,2.654,2.373.015.433,0,.867,0,1.3q0,19.92-.014,39.839c0,.989.118,1.613,1.217,2.09a17.987,17.987,0,0,1-13.3,33.41,2.658,2.658,0,0,0-2.648.254,6.83,6.83,0,0,1-7.86-.907c-.481-.437-.942-.9-1.438-1.317-1.5-1.269-2.472-1.259-4.012.023-.333.276-.658.563-.972.862a6.843,6.843,0,0,1-10.007.04c-2.631-2.513-3.609-2.5-6.21.1a6.8,6.8,0,0,1-9.635.079c-2.855-2.755-3.612-2.725-6.457-.079a7.7,7.7,0,0,1-2.734,1.649c-2.578.852-4.106.369-4.078-2.907C183.714,3620.215,183.652,3607.965,183.652,3595.715Zm4.056,34.8c.18-.027.305-.007.369-.061,4.322-3.641,7.132-3.617,11.2.1,1.863,1.7,3.319,1.8,4.994-.257a7.26,7.26,0,0,1,10.873.059c1.7,2.013,3.256,1.888,5.132.058,3.653-3.564,7.179-3.541,10.924-.031a14.439,14.439,0,0,0,2.593,1.578l.384-.476c-4.353-3.521-6.086-8.295-6.538-13.739-4.739,0-9.339,0-13.939,0a13.787,13.787,0,0,1-2.109-.055,1.9,1.9,0,0,1-1.865-2.059,1.87,1.87,0,0,1,1.888-1.86c.537-.054,1.082-.058,1.622-.058,4.39,0,8.782-.058,13.17.031a2.089,2.089,0,0,0,2.373-1.711c2.558-7.028,7.548-11.185,15.027-12.157a30.068,30.068,0,0,1,3.847-.023v-39.181c-.275.208-.412.294-.529.4-3.538,3.331-7.084,3.358-10.6.08-2.365-2.208-3.411-2.22-5.724.161a6.832,6.832,0,0,1-5.375,2.194,6.4,6.4,0,0,1-4.623-2.022c-2.478-2.582-3.6-2.562-6.2-.05a8.3,8.3,0,0,1-1.522,1.2,6.8,6.8,0,0,1-8.22-1.088c-2.664-2.661-3.578-2.668-6.322-.05-.078.075-.155.152-.234.226a6.921,6.921,0,0,1-9.319.035c-.376-.343-.76-.677-1.276-1.137Zm44.119-12.75a14,14,0,1,0,13.9-13.992A14.091,14.091,0,0,0,231.826,3617.76Z" transform="translate(-183.61 -3555.547)" fill="#ffa63a"/><path d="M268.8,3676.744q-6.993,0-13.987,0c-.487,0-1.119.165-1.432-.075a4.111,4.111,0,0,1-1.642-1.877c-.247-1.065.548-1.8,1.664-1.994a6.793,6.793,0,0,1,1.136-.035q14.15,0,28.3,0c.271,0,.543-.008.813.011a1.978,1.978,0,1,1-.051,3.955c-2.005.041-4.011.017-6.017.017Q273.194,3676.745,268.8,3676.744Z" transform="translate(-229.55 -3634.63)" fill="#ffa63a"/><path d="M278.926,3614.989c-3.9,0-7.8.007-11.7-.008a3.517,3.517,0,0,1-1.743-.207c-.573-.364-1.29-1.048-1.3-1.607a2.988,2.988,0,0,1,1.1-1.918,2.832,2.832,0,0,1,1.7-.308q12.109-.027,24.219-.014a5.576,5.576,0,0,1,.811.008c1.193.18,2.1.735,2.059,2.07a1.912,1.912,0,0,1-2.139,1.956c-2.871.038-5.743.022-8.614.026Q281.12,3614.992,278.926,3614.989Z" transform="translate(-237.972 -3592.906)" fill="#ffa63a"/><path d="M236.894,3703.686h12.521q.569,0,1.138,0c1.336.011,2.238.582,2.208,2.009s-.971,1.954-2.288,1.958q-2.683.006-5.366,0H224.456c-.325,0-.65,0-.976,0-1.758-.028-2.6-.656-2.632-1.958-.032-1.34.766-1.992,2.549-2.008,2.276-.021,4.553-.005,6.829-.006Z" transform="translate(-208.735 -3655.497)" fill="#ffa63a"/><path d="M236.586,3645.868c-4.384,0-8.768.011-13.153,0-1.8-.007-2.627-.626-2.676-1.911-.051-1.344.863-2.079,2.684-2.081q13.315-.014,26.63,0c1.775,0,2.621.639,2.671,1.927.052,1.364-.814,2.059-2.679,2.065C245.572,3645.879,241.079,3645.868,236.586,3645.868Z" transform="translate(-208.673 -3613.788)" fill="#ffa63a"/><path d="M226.833,3615.047c-1.244,0-2.489.034-3.732-.008-1.589-.052-2.4-.78-2.327-2.078.078-1.427.987-1.941,2.294-1.943,2.434,0,4.868-.022,7.3.007,1.491.018,2.5.878,2.372,2.067a2.061,2.061,0,0,1-2.34,1.957C229.213,3615.043,228.023,3615.047,226.833,3615.047Z" transform="translate(-208.683 -3592.968)" fill="#ffa63a"/><path d="M226.675,3738.4c-1.246,0-2.5.06-3.736-.017-1.2-.074-2.118-.646-2.13-1.983a1.875,1.875,0,0,1,2.058-2.021q3.9-.073,7.8,0a1.9,1.9,0,0,1,2.063,2.033,1.973,1.973,0,0,1-2.154,1.971c-1.3.049-2.6.011-3.9.011Z" transform="translate(-208.709 -3676.185)" fill="#ffa63a"/><path d="M330.788,3641.861c.922,0,1.847-.053,2.764.013a1.874,1.874,0,0,1,1.985,1.933,1.852,1.852,0,0,1-2.047,2.019c-1.951.042-3.9.048-5.854,0a1.821,1.821,0,0,1-1.986-1.913,1.9,1.9,0,0,1,2.049-2.042c1.028-.05,2.059-.01,3.089-.01Z" transform="translate(-279.448 -3613.772)" fill="#ffa63a"/><path d="M224.769,3676.673a5.4,5.4,0,0,1-2.233-.063,3.319,3.319,0,0,1-1.638-1.841,1.622,1.622,0,0,1,1.628-1.986,33.594,33.594,0,0,1,4.367-.021,1.784,1.784,0,0,1,1.826,1.883,1.834,1.834,0,0,1-1.847,2.032c-.7.066-1.4.012-2.1.012Z" transform="translate(-208.735 -3634.594)" fill="#ffa63a"/></g><text transform="translate(237.934 3625.232)" fill="#ffa63a" font-size="25" font-family="Mont-Bold, Mont" font-weight="700"><tspan x="0" y="0">$</tspan></text></g></svg>