<svg height="54" viewBox="0 0 99 54" width="99" xmlns="http://www.w3.org/2000/svg"><g fill="#ffa63a"><path d="m15 0a15 15 0 0 0 -15 15v14a15 15 0 0 0 15 15h59a15 15 0 0 0 15-15v-14a15 15 0 0 0 -15-15zm0-5h59a19.988 19.988 0 0 1 20 20v14a19.988 19.988 0 0 1 -20 20h-59a19.988 19.988 0 0 1 -20-20v-14a19.988 19.988 0 0 1 20-20z" transform="translate(5 5)"/><path d="m10 5a5.006 5.006 0 0 0 -5 5v14a5.006 5.006 0 0 0 5 5h19a5.006 5.006 0 0 0 5-5v-14a5.006 5.006 0 0 0 -5-5zm0-5h19a10 10 0 0 1 10 10v14a10 10 0 0 1 -10 10h-19a10 10 0 0 1 -10-10v-14a10 10 0 0 1 10-10z" transform="translate(10 10)"/></g></svg>